<mxfile host="app.diagrams.net" modified="2023-07-07T17:11:36.882Z" agent="Mozilla/5.0 (Macintosh; Intel Mac OS X 10_15_7) AppleWebKit/537.36 (KHTML, like Gecko) Chrome/114.0.0.0 Safari/537.36" version="21.6.1" etag="hmoh0Q5OR-T8gPsw_vat" type="github">
  <diagram name="Page-1" id="XuBufxkLS0ISRGv9_g3C">
    <mxGraphModel>
      <root>
        <mxCell id="0" />
        <mxCell id="1" parent="0" />
      </root>
    </mxGraphModel>
  </diagram>
</mxfile>
